<mxfile host="app.diagrams.net" modified="2024-06-14T14:15:13.758Z" agent="Mozilla/5.0 (Windows NT 10.0; Win64; x64) AppleWebKit/537.36 (KHTML, like Gecko) Chrome/125.0.0.0 Safari/537.36" version="24.5.4" etag="QAu3NcHJ2iMY45M49kbw" type="github">
  <diagram name="Seite-1" id="E12cN2H0fw8aqOolMpXq">
    <mxGraphModel>
      <root>
        <mxCell id="0" />
        <mxCell id="1" parent="0" />
      </root>
    </mxGraphModel>
  </diagram>
</mxfile>
